<svg width="36" height="36" viewBox="0 0 36 36" fill="none" xmlns="http://www.w3.org/2000/svg">
<g clip-path="url(#clip0_3649_34380)">
<path d="M18 36C27.9411 36 36 27.9411 36 18C36 8.05887 27.9411 0 18 0C8.05887 0 0 8.05887 0 18C0 27.9411 8.05887 36 18 36Z" fill="#00DCFA"/>
<path d="M21.8003 5.625C17.4465 5.625 13.7486 8.973 13.284 13.2829C8.97187 13.7486 5.625 17.4465 5.625 21.7991C5.62619 24.073 6.52995 26.2535 8.13773 27.8615C9.74552 29.4695 11.9258 30.3735 14.1997 30.375C18.5535 30.375 22.266 27.027 22.716 22.7171C27.027 22.2514 30.375 18.5535 30.375 14.2009C30.3738 11.927 29.4701 9.74653 27.8623 8.13853C26.2545 6.53053 24.0742 5.62649 21.8003 5.625ZM28.3658 15.1605C28.1517 16.5668 27.4936 17.8679 26.4878 18.8738C25.4819 19.8796 24.1808 20.5377 22.7745 20.7517V15.1605H28.3658ZM7.63425 20.8395C7.84547 19.4305 8.50222 18.1262 9.50833 17.1174C10.5144 16.1087 11.8171 15.4485 13.2255 15.2336V20.8249H7.63425V20.8395ZM20.7664 22.7745C20.5341 24.3497 19.7428 25.7887 18.5372 26.8287C17.3315 27.8687 15.792 28.4402 14.1997 28.4389C12.6078 28.4402 11.0685 27.8688 9.86309 26.8291C8.65765 25.7893 7.86653 24.3505 7.63425 22.7756H20.7664V22.7745ZM20.8395 15.1605V20.8249H15.1605V15.1605H20.8395ZM28.3658 13.2255H15.2336C15.4659 11.6503 16.2572 10.2113 17.4628 9.17127C18.6685 8.13128 20.208 7.55976 21.8003 7.56113C23.3922 7.55975 24.9315 8.13115 26.1369 9.17094C27.3423 10.2107 28.1335 11.6495 28.3658 13.2244V13.2255Z" fill="white"/>
</g>
<defs>
<clipPath id="clip0_3649_34380">
<rect width="36" height="36" fill="white"/>
</clipPath>
</defs>
</svg>
